<svg xmlns="http://www.w3.org/2000/svg" width="700" height="580" font-family="monospace" font-size="12">
  <title>Duduk A — Fingering Chart</title>
  <rect width="700" height="580" fill="#fffef8" rx="8"/>
  <text x="350" y="28" text-anchor="middle" font-size="17" font-weight="bold">Duduk in A — Fingering Chart</text>
  <text x="350" y="46" text-anchor="middle" font-size="11" fill="#555">● = hole covered  ○ = hole open  T = thumb hole (back)  ~ = glide from adjacent pitch</text>
  <text x="10"  y="72" font-weight="bold">Note</text>
  <text x="70"  y="72" font-weight="bold">T</text>
  <text x="100" y="72" font-weight="bold">H1</text><text x="128" y="72" font-weight="bold">H2</text><text x="156" y="72" font-weight="bold">H3</text>
  <text x="184" y="72" font-weight="bold">H4</text><text x="212" y="72" font-weight="bold">H5</text><text x="240" y="72" font-weight="bold">H6</text>
  <text x="278" y="72" font-weight="bold">H7</text><text x="306" y="72" font-weight="bold">H8</text>
  <text x="344" y="72" font-weight="bold">Notes</text>
  <!-- Chromatic scale A3-A4 -->
  <text x="10"  y="96">A3</text>  <text x="70" y="96">●</text><text x="100" y="96">●</text><text x="128" y="96">●</text><text x="156" y="96">●</text><text x="184" y="96">●</text><text x="212" y="96">●</text><text x="240" y="96">●</text><text x="278" y="96">●</text><text x="306" y="96">●</text><text x="344" y="96">fundamental</text>
  <text x="10" y="116">Bb3</text> <text x="70" y="116">●</text><text x="100" y="116">●</text><text x="128" y="116">●</text><text x="156" y="116">●</text><text x="184" y="116">●</text><text x="212" y="116">●</text><text x="240" y="116">●</text><text x="278" y="116">●</text><text x="306" y="116">○</text>
  <text x="10" y="136">B3</text>  <text x="70" y="136">●</text><text x="100" y="136">●</text><text x="128" y="136">●</text><text x="156" y="136">●</text><text x="184" y="136">●</text><text x="212" y="136">●</text><text x="240" y="136">●</text><text x="278" y="136">○</text><text x="306" y="136">○</text>
  <text x="10" y="156">C4</text>  <text x="70" y="156">●</text><text x="100" y="156">●</text><text x="128" y="156">●</text><text x="156" y="156">●</text><text x="184" y="156">●</text><text x="212" y="156">●</text><text x="240" y="156">○</text><text x="278" y="156">○</text><text x="306" y="156">○</text>
  <text x="10" y="176">D4</text>  <text x="70" y="176">●</text><text x="100" y="176">●</text><text x="128" y="176">●</text><text x="156" y="176">●</text><text x="184" y="176">●</text><text x="212" y="176">○</text><text x="240" y="176">○</text><text x="278" y="176">○</text><text x="306" y="176">○</text>
  <text x="10" y="196">E4</text>  <text x="70" y="196">●</text><text x="100" y="196">●</text><text x="128" y="196">●</text><text x="156" y="196">●</text><text x="184" y="196">○</text><text x="212" y="196">○</text><text x="240" y="196">○</text><text x="278" y="196">○</text><text x="306" y="196">○</text>
  <text x="10" y="216">F4</text>  <text x="70" y="216">●</text><text x="100" y="216">●</text><text x="128" y="216">●</text><text x="156" y="216">○</text><text x="184" y="216">○</text><text x="212" y="216">○</text><text x="240" y="216">○</text><text x="278" y="216">○</text><text x="306" y="216">○</text><text x="344" y="216">or half-hole</text>
  <text x="10" y="236">G4</text>  <text x="70" y="236">●</text><text x="100" y="236">●</text><text x="128" y="236">○</text><text x="156" y="236">○</text><text x="184" y="236">○</text><text x="212" y="236">○</text><text x="240" y="236">○</text><text x="278" y="236">○</text><text x="306" y="236">○</text>
  <text x="10" y="256">A4</text>  <text x="70" y="256">●</text><text x="100" y="256">○</text><text x="128" y="256">○</text><text x="156" y="256">○</text><text x="184" y="256">○</text><text x="212" y="256">○</text><text x="240" y="256">○</text><text x="278" y="256">○</text><text x="306" y="256">○</text>
  <text x="10" y="276">Bb4</text> <text x="70" y="276">○</text><text x="100" y="276">●</text><text x="128" y="276">●</text><text x="156" y="276">●</text><text x="184" y="276">●</text><text x="212" y="276">●</text><text x="240" y="276">●</text><text x="278" y="276">●</text><text x="306" y="276">●</text><text x="344" y="276">thumb open</text>
  <text x="10" y="296">C5</text>  <text x="70" y="296">○</text><text x="100" y="296">●</text><text x="128" y="296">●</text><text x="156" y="296">●</text><text x="184" y="296">○</text><text x="212" y="296">○</text><text x="240" y="296">○</text><text x="278" y="296">○</text><text x="306" y="296">○</text>
  <text x="350" y="350" text-anchor="middle" fill="#555" font-size="11">Duduk has 8 front holes + 1 thumb hole. Chromatic notes use half-holing and cross-fingering.</text>
  <text x="350" y="368" text-anchor="middle" fill="#555" font-size="11">Glides ({X}Y in ABC) = slow portamento. Embouchure controls pitch, not just breath.</text>
  <text x="350" y="390" text-anchor="middle" fill="#555" font-size="11">Generated by sheet-music skill — Refs #1</text>
</svg>